<svg width="42" height="42" viewBox="0 0 42 42" fill="none" xmlns="http://www.w3.org/2000/svg">
    <path d="M41.9765 16.6786V12.2391C41.9765 9.53789 40.1678 7.16548 37.6074 6.43731C37.3725 3.21929 35 0.118708 31.0302 0.0247512C27.3893 -0.0692057 24.4295 2.67903 24.1007 6.20242H17.8523C17.547 2.79648 14.7047 0.095219 11.2517 0.00126214C7.54027 -0.0692055 4.51007 2.81997 4.32215 6.43731C1.83222 7.18897 0 9.49091 0 12.2391V35.9398C0 39.2753 2.72483 42 6.0604 42H35.9396C39.2752 42 42 39.2753 42 35.9398L41.9765 16.6786ZM30.9832 1.24619C33.943 1.31666 36.3389 3.68907 36.4094 6.6722C36.4564 9.09159 34.9765 11.2526 32.698 12.0512C32.4161 12.1452 32.1107 12.0982 31.8524 11.9338C31.594 11.7459 31.453 11.4875 31.453 11.1821C31.453 10.7828 31.6879 10.4305 32.0638 10.313C33.5436 9.79627 34.5302 8.38692 34.5537 6.83663C34.5537 6.83663 34.5537 6.83663 34.5537 6.81314V6.78965C34.5537 6.71918 34.5537 6.62522 34.5537 6.55476C34.4362 4.7226 32.9564 3.24278 31.1242 3.12533C29.151 2.98439 27.5302 4.39375 27.2248 6.20242H25.3456C25.651 3.38371 28.047 1.17572 30.9832 1.24619ZM33.2383 6.17893H28.4463C28.7282 5.07494 29.7852 4.25281 31.0067 4.32328C32.1107 4.41724 32.9799 5.16889 33.2383 6.17893ZM11.2282 1.24619C14.2114 1.31666 16.5839 3.68907 16.6544 6.6722C16.7013 9.09159 15.2215 11.2526 12.943 12.0512C12.6611 12.1452 12.3557 12.0982 12.0973 11.9338C11.4866 11.4875 11.6275 10.5479 12.3087 10.313C13.7886 9.79627 14.7752 8.38692 14.7987 6.83663V6.78965C14.7987 6.71918 14.7987 6.64871 14.7987 6.55476C14.6812 4.7226 13.2013 3.24278 11.3691 3.12533C9.39597 2.98439 7.77517 4.39375 7.4698 6.20242H6.0604C5.89597 6.20242 5.75503 6.20242 5.5906 6.22591C5.87248 3.4072 8.26846 1.17572 11.2282 1.24619ZM13.4832 6.17893H8.71476C8.99664 5.07494 10.0537 4.25281 11.2752 4.32328C12.3322 4.41724 13.2248 5.16889 13.4832 6.17893ZM6.03691 7.42386H13.4832C13.2718 8.199 12.7081 8.8567 11.9094 9.13857C10.2886 9.70231 9.95973 11.9103 11.3926 12.9438C11.9799 13.3431 12.6846 13.4606 13.3423 13.2257C15.8792 12.3096 17.6174 10.0547 17.8523 7.42386H33.2383C33.0268 8.199 32.4631 8.8567 31.6644 9.13857C30.8188 9.44393 30.2315 10.2661 30.2315 11.1821C30.2315 11.8868 30.5839 12.5445 31.1477 12.9438C31.5235 13.2022 31.9463 13.3431 32.3926 13.3431C32.6275 13.3431 32.8859 13.2962 33.1208 13.2257C35.9161 12.2391 37.3255 10.0547 37.5839 7.72922C39.4396 8.41041 40.7315 10.2191 40.7315 12.2391V16.0679H1.22148V12.2391C1.22148 9.58487 3.38255 7.42386 6.03691 7.42386ZM35.9161 40.7551H6.03691C3.38255 40.7551 1.22148 38.5941 1.22148 35.9398V17.2893H40.7315V35.9398C40.7315 38.5941 38.5705 40.7551 35.9161 40.7551Z" fill="#FFB131"/>
    <path d="M8.66778 18.5343H7.35235C6.01342 18.5343 4.93289 19.6148 4.93289 20.9537V22.269C4.93289 23.6079 6.01342 24.6884 7.35235 24.6884H8.66778C10.0067 24.6884 11.0872 23.6079 11.0872 22.269V20.9537C11.0872 19.6148 10.0067 18.5343 8.66778 18.5343ZM9.86577 22.269C9.86577 22.9267 9.3255 23.467 8.66778 23.467H7.35235C6.69463 23.467 6.15436 22.9267 6.15436 22.269V20.9537C6.15436 20.296 6.69463 19.7557 7.35235 19.7557H8.66778C9.3255 19.7557 9.86577 20.296 9.86577 20.9537V22.269Z" fill="#FFB131"/>
    <path d="M17.3121 18.5343H15.9966C14.6577 18.5343 13.5772 19.6148 13.5772 20.9537V22.269C13.5772 23.6079 14.6577 24.6884 15.9966 24.6884H17.3121C18.651 24.6884 19.7315 23.6079 19.7315 22.269V20.9537C19.7315 19.6148 18.651 18.5343 17.3121 18.5343ZM18.5101 22.269C18.5101 22.9267 17.9698 23.467 17.3121 23.467H15.9966C15.3389 23.467 14.7987 22.9267 14.7987 22.269V20.9537C14.7987 20.296 15.3389 19.7557 15.9966 19.7557H17.3121C17.9698 19.7557 18.5101 20.296 18.5101 20.9537V22.269Z" fill="#FFB131"/>
    <path d="M25.9564 18.5343H24.6409C23.302 18.5343 22.2215 19.6148 22.2215 20.9537V22.269C22.2215 23.6079 23.302 24.6884 24.6409 24.6884H25.9564C27.2953 24.6884 28.3758 23.6079 28.3758 22.269V20.9537C28.3758 19.6148 27.2953 18.5343 25.9564 18.5343ZM27.1544 22.269C27.1544 22.9267 26.6141 23.467 25.9564 23.467H24.6409C23.9832 23.467 23.443 22.9267 23.443 22.269V20.9537C23.443 20.296 23.9832 19.7557 24.6409 19.7557H25.9564C26.6141 19.7557 27.1544 20.296 27.1544 20.9537V22.269Z" fill="#FFB131"/>
    <path d="M34.6007 18.5343H33.2852C31.9463 18.5343 30.8658 19.6148 30.8658 20.9537V22.269C30.8658 23.6079 31.9463 24.6884 33.2852 24.6884H34.6007C35.9396 24.6884 37.0201 23.6079 37.0201 22.269V20.9537C37.0201 19.6148 35.9396 18.5343 34.6007 18.5343ZM35.7987 22.269C35.7987 22.9267 35.2584 23.467 34.6007 23.467H33.2852C32.6275 23.467 32.0872 22.9267 32.0872 22.269V20.9537C32.0872 20.296 32.6275 19.7557 33.2852 19.7557H34.6007C35.2584 19.7557 35.7987 20.296 35.7987 20.9537V22.269Z" fill="#FFB131"/>
    <path d="M8.66778 25.9334H7.35235C6.01342 25.9334 4.93289 27.0139 4.93289 28.3528V29.6682C4.93289 31.007 6.01342 32.0875 7.35235 32.0875H8.66778C10.0067 32.0875 11.0872 31.007 11.0872 29.6682V28.3528C11.0872 27.0374 10.0067 25.9334 8.66778 25.9334ZM9.86577 29.6916C9.86577 30.3493 9.3255 30.8896 8.66778 30.8896H7.35235C6.69463 30.8896 6.15436 30.3493 6.15436 29.6916V28.3762C6.15436 27.7185 6.69463 27.1783 7.35235 27.1783H8.66778C9.3255 27.1783 9.86577 27.7185 9.86577 28.3762V29.6916Z" fill="#FFB131"/>
    <path d="M17.3121 25.9334H15.9966C14.6577 25.9334 13.5772 27.0139 13.5772 28.3528V29.6682C13.5772 31.007 14.6577 32.0875 15.9966 32.0875H17.3121C18.651 32.0875 19.7315 31.007 19.7315 29.6682V28.3528C19.7315 27.0374 18.651 25.9334 17.3121 25.9334ZM18.5101 29.6916C18.5101 30.3493 17.9698 30.8896 17.3121 30.8896H15.9966C15.3389 30.8896 14.7987 30.3493 14.7987 29.6916V28.3762C14.7987 27.7185 15.3389 27.1783 15.9966 27.1783H17.3121C17.9698 27.1783 18.5101 27.7185 18.5101 28.3762V29.6916Z" fill="#FFB131"/>
    <path d="M25.9564 25.9334H24.6409C23.302 25.9334 22.2215 27.0139 22.2215 28.3528V29.6682C22.2215 31.007 23.302 32.0875 24.6409 32.0875H25.9564C27.2953 32.0875 28.3758 31.007 28.3758 29.6682V28.3528C28.3758 27.0374 27.2953 25.9334 25.9564 25.9334ZM27.1544 29.6916C27.1544 30.3493 26.6141 30.8896 25.9564 30.8896H24.6409C23.9832 30.8896 23.443 30.3493 23.443 29.6916V28.3762C23.443 27.7185 23.9832 27.1783 24.6409 27.1783H25.9564C26.6141 27.1783 27.1544 27.7185 27.1544 28.3762V29.6916Z" fill="#FFB131"/>
    <path d="M34.6007 25.9334H33.2852C31.9463 25.9334 30.8658 27.0139 30.8658 28.3528V29.6682C30.8658 31.007 31.9463 32.0875 33.2852 32.0875H34.6007C35.9396 32.0875 37.0201 31.007 37.0201 29.6682V28.3528C37.0201 27.0374 35.9396 25.9334 34.6007 25.9334ZM35.7987 29.6916C35.7987 30.3493 35.2584 30.8896 34.6007 30.8896H33.2852C32.6275 30.8896 32.0872 30.3493 32.0872 29.6916V28.3762C32.0872 27.7185 32.6275 27.1783 33.2852 27.1783H34.6007C35.2584 27.1783 35.7987 27.7185 35.7987 28.3762V29.6916Z" fill="#FFB131"/>
    <path d="M8.66778 33.356H7.35235C6.01342 33.356 4.93289 34.4365 4.93289 35.7754V37.0908C4.93289 38.4296 6.01342 39.5101 7.35235 39.5101H8.66778C10.0067 39.5101 11.0872 38.4296 11.0872 37.0908V35.7754C11.0872 34.4365 10.0067 33.356 8.66778 33.356ZM9.86577 37.0908C9.86577 37.7485 9.3255 38.2887 8.66778 38.2887H7.35235C6.69463 38.2887 6.15436 37.7485 6.15436 37.0908V35.7754C6.15436 35.1177 6.69463 34.5774 7.35235 34.5774H8.66778C9.3255 34.5774 9.86577 35.1177 9.86577 35.7754V37.0908Z" fill="#FFB131"/>
    <path d="M17.3121 33.356H15.9966C14.6577 33.356 13.5772 34.4365 13.5772 35.7754V37.0908C13.5772 38.4296 14.6577 39.5101 15.9966 39.5101H17.3121C18.651 39.5101 19.7315 38.4296 19.7315 37.0908V35.7754C19.7315 34.4365 18.651 33.356 17.3121 33.356ZM18.5101 37.0908C18.5101 37.7485 17.9698 38.2887 17.3121 38.2887H15.9966C15.3389 38.2887 14.7987 37.7485 14.7987 37.0908V35.7754C14.7987 35.1177 15.3389 34.5774 15.9966 34.5774H17.3121C17.9698 34.5774 18.5101 35.1177 18.5101 35.7754V37.0908Z" fill="#FFB131"/>
    <path d="M25.9564 33.356H24.6409C23.302 33.356 22.2215 34.4365 22.2215 35.7754V37.0908C22.2215 38.4296 23.302 39.5101 24.6409 39.5101H25.9564C27.2953 39.5101 28.3758 38.4296 28.3758 37.0908V35.7754C28.3758 34.4365 27.2953 33.356 25.9564 33.356ZM27.1544 37.0908C27.1544 37.7485 26.6141 38.2887 25.9564 38.2887H24.6409C23.9832 38.2887 23.443 37.7485 23.443 37.0908V35.7754C23.443 35.1177 23.9832 34.5774 24.6409 34.5774H25.9564C26.6141 34.5774 27.1544 35.1177 27.1544 35.7754V37.0908Z" fill="#FFB131"/>
    <path d="M34.6007 33.356H33.2852C31.9463 33.356 30.8658 34.4365 30.8658 35.7754V37.0908C30.8658 38.4296 31.9463 39.5101 33.2852 39.5101H34.6007C35.9396 39.5101 37.0201 38.4296 37.0201 37.0908V35.7754C37.0201 34.4365 35.9396 33.356 34.6007 33.356ZM35.7987 37.0908C35.7987 37.7485 35.2584 38.2887 34.6007 38.2887H33.2852C32.6275 38.2887 32.0872 37.7485 32.0872 37.0908V35.7754C32.0872 35.1177 32.6275 34.5774 33.2852 34.5774H34.6007C35.2584 34.5774 35.7987 35.1177 35.7987 35.7754V37.0908Z" fill="#FFB131"/>
</svg>