<svg width="38" height="38" viewBox="0 0 38 38" fill="none" xmlns="http://www.w3.org/2000/svg">
    <path
        d="M17.8385 32.8692H20.0308V30.3653C21.8461 30.2217 23.3589 29.6641 24.5692 28.6923C25.7795 27.7205 26.3846 26.3589 26.3846 24.6077C26.3846 22.9846 25.9109 21.6717 24.9635 20.6692C24.016 19.6666 22.3795 18.6948 20.0538 17.7538C17.9923 16.941 16.5795 16.2243 15.8154 15.6038C15.0513 14.9833 14.6692 14.1269 14.6692 13.0346C14.6692 11.9756 15.0731 11.1141 15.8808 10.45C16.6885 9.78585 17.7615 9.4538 19.1 9.4538C20.1 9.4538 20.9667 9.68072 21.7 10.1346C22.4333 10.5884 23.0564 11.2435 23.5693 12.1L25.45 11.2192C24.8833 10.1551 24.1461 9.31535 23.2385 8.69995C22.3308 8.08459 21.2949 7.72305 20.1308 7.61535V5.1615H17.9385V7.61535C16.2128 7.84868 14.8744 8.46407 13.9231 9.4615C12.9718 10.4589 12.4962 11.65 12.4962 13.0346C12.4962 14.591 12.9802 15.8269 13.9481 16.7423C14.916 17.6576 16.4449 18.532 18.5347 19.3653C20.7552 20.273 22.2596 21.089 23.0481 21.8134C23.8366 22.5378 24.2308 23.4692 24.2308 24.6077C24.2308 25.841 23.7443 26.7891 22.7712 27.4519C21.7981 28.1147 20.6513 28.4461 19.3308 28.4461C18.0692 28.4461 16.9333 28.0923 15.9231 27.3846C14.9128 26.6769 14.1692 25.7025 13.6923 24.4615L11.7001 25.1769C12.3872 26.6076 13.2295 27.723 14.227 28.523C15.2244 29.323 16.4282 29.9038 17.8385 30.2653V32.8692ZM19 37.9999C16.3949 37.9999 13.9398 37.5005 11.6347 36.5018C9.32953 35.5031 7.31351 34.1403 5.58661 32.4134C3.85968 30.6865 2.49686 28.6704 1.49816 26.3653C0.499428 24.0602 6.10352e-05 21.6051 6.10352e-05 19C6.10352e-05 16.3743 0.499428 13.9057 1.49816 11.5942C2.49686 9.28267 3.85968 7.27178 5.58661 5.56155C7.31351 3.85128 9.32953 2.4968 11.6347 1.4981C13.9398 0.499369 16.3949 0 19 0C21.6256 0 24.0942 0.499369 26.4058 1.4981C28.7173 2.4968 30.7282 3.85128 32.4384 5.56155C34.1487 7.27178 35.5032 9.28267 36.5019 11.5942C37.5006 13.9057 38 16.3743 38 19C38 21.6051 37.5006 24.0602 36.5019 26.3653C35.5032 28.6704 34.1487 30.6865 32.4384 32.4134C30.7282 34.1403 28.7173 35.5031 26.4058 36.5018C24.0942 37.5005 21.6256 37.9999 19 37.9999ZM19 35.7307C23.6564 35.7307 27.609 34.1012 30.8577 30.8423C34.1064 27.5833 35.7308 23.6359 35.7308 19C35.7308 14.3436 34.1064 10.391 30.8577 7.14225C27.609 3.89355 23.6564 2.2692 19 2.2692C14.3641 2.2692 10.4167 3.89355 7.15771 7.14225C3.89875 10.391 2.26926 14.3436 2.26926 19C2.26926 23.6359 3.89875 27.5833 7.15771 30.8423C10.4167 34.1012 14.3641 35.7307 19 35.7307Z"
        fill="#fff" />
</svg>