<svg width="72" height="111" viewBox="0 0 72 111" fill="none"
    xmlns="http://www.w3.org/2000/svg">
    <path
        d="M35.622 0.0600586C35.181 0.123059 34.74 0.312059 34.425 0.690059L27.999 6.67506L19.242 4.78506C18.36 4.59606 17.478 5.10006 17.226 5.98206L14.643 14.5501L6.07499 17.2591C5.19299 17.5111 4.68899 18.3931 4.87799 19.2751L6.89399 28.0321L0.908993 34.7101C0.278993 35.4031 0.278993 36.4111 0.908993 37.0411L7.01999 43.5931L5.12999 52.3501C4.94099 53.2321 5.44499 54.1141 6.32699 54.3661L14.895 56.9491L17.604 65.5171C17.793 66.0841 18.234 66.5251 18.864 66.6511V109.176C18.864 110.625 20.565 111.444 21.699 110.499L36.189 98.5291L50.679 110.499C51.813 111.444 53.514 110.625 53.514 109.176V66.3991C54.081 66.2731 54.585 65.8321 54.711 65.2651L57.294 56.6971L65.862 53.9251C66.744 53.6731 67.248 52.7911 67.059 51.9091L64.98 43.1521L71.028 36.5371C71.658 35.8441 71.595 34.8361 71.028 34.2061L64.98 27.6541L66.87 18.8971C67.059 18.0151 66.555 17.1331 65.673 16.8811L57.105 14.2981L54.396 5.73006C54.144 4.84806 53.199 4.34406 52.317 4.59606L43.56 6.54906L37.008 0.564059C36.567 0.186059 36.126 0.0600586 35.622 0.0600586ZM35.748 4.15506L41.859 9.69906C42.3 10.0771 42.867 10.2031 43.434 10.0771L51.498 8.18706L54.018 16.0621C54.207 16.6291 54.585 17.0071 55.152 17.1961L63.09 19.5901L61.389 27.7801C61.263 28.3471 61.452 28.9141 61.83 29.3551L67.5 35.4031L61.956 41.5141C61.578 41.9551 61.389 42.5221 61.515 43.0891L63.405 51.1531L55.53 53.6731C54.963 53.8621 54.585 54.3031 54.396 54.8071L52.002 62.7451L43.875 60.9811C43.308 60.8551 42.741 61.0441 42.3 61.4221L36.252 67.0921L30.141 61.5481C29.7 61.1701 29.133 60.9811 28.566 61.1071L20.502 62.9971L17.982 55.1221C17.793 54.5551 17.415 54.1771 16.848 53.9881L8.90999 51.5941L10.674 43.4671C10.8 42.9001 10.611 42.3331 10.233 41.8921L4.56299 35.8441L10.107 29.7331C10.485 29.2921 10.611 28.7251 10.485 28.1581L8.59499 20.0941L16.47 17.5741C17.037 17.3851 17.415 16.9441 17.604 16.4401L19.998 8.50206L28.125 10.2661C28.692 10.3921 29.259 10.2031 29.7 9.82506L35.748 4.15506ZM36.252 13.7311C23.841 13.7311 13.761 23.8111 13.761 36.2221C13.761 48.6331 23.841 58.7131 36.252 58.7131C48.663 58.7131 58.743 48.6331 58.743 36.2221C58.743 23.8111 48.663 13.7311 36.252 13.7311ZM36.252 17.1961C46.773 17.1961 55.278 25.7011 55.278 36.2221C55.278 46.7431 46.773 55.2481 36.252 55.2481C25.731 55.2481 17.226 46.7431 17.226 36.2221C17.226 25.7011 25.668 17.1961 36.252 17.1961ZM36 25.1971C35.433 25.1971 34.866 25.4491 34.551 26.0161L30.33 32.5681L24.03 28.2211C22.77 27.3391 21.069 28.4101 21.321 29.9221L23.904 44.5381C24.03 45.3571 24.786 45.9871 25.605 45.9871h26.395C47.214 45.9871 47.97 45.3571 48.096 44.5381L50.679 29.9221C50.931 28.4101 49.23 27.3391 47.97 28.2211L41.67 32.5681L37.449 26.0161C37.134 25.4491 36.567 25.1971 36 25.1971Z"
        fill="#3E60FF" />
</svg>