                        <svg width="48" height="45" viewBox="0 0 48 45" fill="none" xmlns="http://www.w3.org/2000/svg">
                            <path d="M47.9541 24.2522L42.9512 7.89864C42.7881 7.37021 42.2443 7.06428 41.7277 7.23115L34.7399 9.28925C34.468 9.37268 34.2505 9.53955 34.1418 9.78986C34.0058 10.0402 33.9786 10.3183 34.0602 10.5686L34.3593 11.5142L30.9334 13.2664L23.0484 10.8189C22.3414 10.5964 21.5529 10.652 20.8732 10.9858C20.1934 11.3195 19.6768 11.9036 19.4049 12.6267L16.0606 21.1094C15.9247 21.4153 15.979 21.7769 16.1694 22.055C16.3597 22.3331 16.6588 22.5 16.9851 22.5C18.0183 22.5 21.4985 22.4166 22.6949 21.165C22.7765 21.0816 22.8308 20.9981 22.8852 20.8869L24.8973 16.7985C25.006 16.5482 25.0332 16.2701 24.9516 16.0198C24.8701 15.7695 24.6797 15.547 24.4622 15.4357C24.2175 15.3245 23.9456 15.2967 23.7009 15.3801C23.4562 15.4635 23.2387 15.6582 23.1299 15.9085L21.2267 19.8022C20.3566 20.1638 19.4593 20.3585 18.5349 20.3863L21.281 13.3776C21.4714 12.877 21.988 12.6267 22.5046 12.7658L30.743 15.2967C30.9877 15.3801 31.2596 15.3523 31.4772 15.241L34.9574 13.4611L39.0631 26.8943C39.2262 27.4227 39.77 27.7287 40.2866 27.5618L47.2744 25.5037C47.5463 25.4203 47.7638 25.2534 47.8725 25.0031C48.0085 24.7806 48.0357 24.5025 47.9541 24.2522ZM40.6673 25.3368L36.2626 10.9302L41.347 9.45612L45.7518 23.8628L40.6673 25.3368Z" fill="#FFB131"/>
                            <path d="M35.7188 20.8869L26.3655 17.2991C25.8489 17.1045 25.2779 17.3826 25.0876 17.911C24.8973 18.4394 25.142 19.0235 25.6586 19.2182L35.0118 22.7781C35.5284 22.9728 35.7731 23.5847 35.5828 24.1131C35.3653 24.6415 34.8215 24.9475 34.2505 24.8362L28.3503 22.5834C27.8337 22.3888 27.29 22.6391 27.0724 23.1675C26.8549 23.6681 27.0996 24.2522 27.589 24.5025L32.9998 26.9221C33.2445 26.9778 33.4348 27.1446 33.5708 27.3949C33.6795 27.6174 33.7067 27.8955 33.6251 28.1459C33.2717 28.8968 32.8367 28.9246 32.5919 28.8412C31.9938 28.6465 31.0421 28.2293 30.743 28.0902L24.3807 25.6706C24.1359 25.5871 23.864 25.5871 23.6193 25.6984C23.3746 25.8096 23.1843 26.0043 23.1027 26.2824C23.0212 26.5328 23.0212 26.8109 23.1299 27.0612C23.2387 27.3115 23.4562 27.5062 23.7009 27.5896L30.0361 29.9815C30.879 30.204 30.6071 31.3164 30.6071 31.3164C30.3896 31.8449 29.8458 32.123 29.2748 32.0396C29.2476 32.0117 27.8609 31.7614 27.8609 31.7614C27.7794 31.4277 27.6162 31.0939 27.4259 30.8158C26.9365 30.1205 26.1752 29.7311 25.3595 29.7311C24.7613 29.7311 24.1903 29.9536 23.7281 30.343C23.6465 30.1483 23.5378 29.9815 23.429 29.8146C22.9396 29.1193 22.1783 28.7299 21.3626 28.7299C20.7644 28.7299 20.1934 28.9524 19.7312 29.3418C19.6496 29.1471 19.5409 28.9802 19.4321 28.8133C18.9427 28.118 18.1814 27.7287 17.3657 27.7287C16.8763 27.7287 16.4141 27.8677 16.0062 28.1459C15.9247 27.6452 15.7343 27.1724 15.4624 26.7831C14.973 26.0878 14.2117 25.6984 13.396 25.6984C12.7978 25.6984 12.2541 25.9209 11.7918 26.2824C11.3296 26.644 11.0033 27.1724 10.8674 27.7565L10.2148 30.0093C9.94293 30.9549 10.1061 31.9839 10.6771 32.7905C11.1665 33.4858 11.9278 33.8752 12.7435 33.8752C13.2329 33.8752 13.6951 33.7361 14.103 33.458C14.1845 33.9586 14.3748 34.4314 14.6467 34.8208C15.1362 35.5161 15.8975 35.9054 16.7132 35.9054C17.3113 35.9054 17.8823 35.6829 18.3445 35.2936C18.4261 35.4883 18.5349 35.6551 18.6436 35.822C19.133 36.5173 19.8944 36.9067 20.71 36.9067C21.3082 36.9067 21.8792 36.6842 22.3414 36.2948C22.423 36.4895 22.5318 36.6564 22.6405 36.8232C23.1299 37.5185 23.8912 37.9079 24.7069 37.9079C25.3051 37.9079 25.8489 37.6854 26.3111 37.3239C26.7733 36.9623 27.0996 36.4339 27.2356 35.8498L27.8066 33.8195L28.6222 33.9864C28.9485 34.0977 29.2748 34.1533 29.6011 34.1533C30.0905 34.1533 30.5799 34.042 30.9877 33.7917C31.9122 33.2077 32.5376 32.2064 32.6191 31.0661C33.462 30.9827 34.2777 30.5933 34.8487 29.9815C35.4197 29.0358 35.6372 27.9234 35.4197 26.8387C35.61 26.7831 35.8003 26.7274 35.9635 26.6162C36.752 26.2546 37.3501 25.5315 37.4861 24.6415C37.622 23.9184 37.5133 23.1397 37.187 22.4722C36.8879 21.7769 36.3441 21.2206 35.7188 20.8869ZM13.967 28.869L13.3145 31.1218C13.2601 31.4277 12.9882 31.678 12.6891 31.7058C12.4988 31.7058 12.3084 31.5946 12.2269 31.4277C12.0365 31.1496 11.9822 30.788 12.0637 30.4543L12.7163 28.2015C12.7707 27.8955 13.0426 27.6452 13.3416 27.6174C13.532 27.6174 13.7223 27.7287 13.8039 27.8956C13.9942 28.1737 14.0486 28.5352 13.967 28.869ZM17.9639 30.8993L17.3113 33.152C17.257 33.458 16.9851 33.7083 16.686 33.7361C16.4956 33.7361 16.3053 33.6248 16.2237 33.458C16.0334 33.1798 15.979 32.8183 16.0606 32.4845L16.7132 30.2318C16.7675 29.9258 17.0394 29.6755 17.3385 29.6477C17.5289 29.6477 17.7192 29.759 17.8007 29.9258C17.9911 30.204 18.0455 30.5655 17.9639 30.8993ZM21.9608 31.9283L21.3082 34.1811C21.2538 34.487 20.9819 34.7373 20.6829 34.7651C20.4925 34.7651 20.3022 34.6539 20.2206 34.487C20.0303 34.2089 19.9759 33.8473 20.0575 33.5136L20.71 31.2608C20.7644 30.9549 21.0363 30.7046 21.3354 30.6768C21.5257 30.6768 21.7161 30.788 21.7976 30.9549C21.988 31.233 22.0423 31.5946 21.9608 31.9283ZM25.9577 32.9574L25.3051 35.2101C25.2507 35.5161 24.9788 35.7664 24.6797 35.7942C24.4894 35.7942 24.2991 35.6829 24.2175 35.5161C24.0272 35.2379 23.9728 34.8764 24.0544 34.5426L24.7069 32.2899C24.7613 31.9839 25.0332 31.7336 25.3323 31.7058C25.5226 31.7058 25.7129 31.8171 25.7945 31.9839C25.9848 32.2621 26.0392 32.6236 25.9577 32.9574Z" fill="#FFB131"/>
                            <path d="M16.6588 15.7973C17.1754 15.992 17.7464 15.7138 17.9367 15.1854C18.0183 14.9351 18.0183 14.657 17.9095 14.4067C17.8008 14.1564 17.6104 13.9617 17.3385 13.8782L13.396 12.3486L13.9398 10.513C14.0214 10.2627 13.9942 9.95674 13.8582 9.73424C13.7223 9.48393 13.5048 9.31706 13.2601 9.23362L6.27232 7.20334C5.75572 7.03646 5.21192 7.3424 5.04879 7.87083L0.0458826 24.2244C-0.0356865 24.4747 -0.00849674 24.7806 0.127452 25.0031C0.2634 25.2534 0.480918 25.4203 0.725625 25.5037L7.71338 27.5618C8.22998 27.7009 8.77377 27.4227 8.93691 26.8943L12.7707 14.3232L16.6588 15.7973ZM7.33272 25.3368L2.24825 23.8628L6.68017 9.42831L11.7646 10.9023L7.33272 25.3368Z" fill="#FFB131"/>
                            <path d="M24 6.14648C24.2719 6.14648 24.5166 6.03523 24.7069 5.84054C24.8973 5.64586 25.006 5.39555 25.006 5.11743V1.02905C25.006 0.472806 24.571 0 24 0C23.4562 0 22.994 0.444994 22.994 1.02905V5.11743C22.994 5.39555 23.1027 5.64586 23.2931 5.84054C23.4834 6.03523 23.7281 6.14648 24 6.14648Z" fill="#FFB131"/>
                            <path d="M14.6467 7.95426C14.9458 8.42707 15.544 8.59394 16.0062 8.31582C16.2509 8.17676 16.4141 7.95426 16.4685 7.70396C16.55 7.45365 16.4956 7.14771 16.3597 6.92522L14.3477 3.39308C14.0758 2.89246 13.4504 2.72559 12.9882 3.03152C12.4988 3.30964 12.3356 3.94932 12.6347 4.42213L14.6467 7.95426Z" fill="#FFB131"/>
                            <path d="M16.0062 36.6564C15.5168 36.3782 14.9186 36.5451 14.6467 37.0179L12.6347 40.5779C12.4988 40.8004 12.4444 41.1063 12.5259 41.3566C12.6075 41.6347 12.7707 41.8572 13.0154 41.9685C13.2329 42.1075 13.5048 42.1353 13.7767 42.0797C14.0214 41.9963 14.2389 41.8294 14.3748 41.6069L16.3869 38.0748C16.6316 37.5742 16.4685 36.9623 16.0062 36.6564Z" fill="#FFB131"/>
                            <path d="M24 38.8535C23.4562 38.8535 22.994 39.2985 22.994 39.8826V43.971C22.994 44.5272 23.429 45 24 45C24.5438 45 25.006 44.555 25.006 43.971V39.8826C25.006 39.6045 24.8973 39.3541 24.7069 39.1595C24.5166 38.9648 24.2719 38.8535 24 38.8535Z" fill="#FFB131"/>
                            <path d="M33.3533 37.0457C33.2173 36.8232 32.9998 36.6286 32.7551 36.5729C32.5104 36.4895 32.2385 36.5451 31.9938 36.6842C31.7762 36.8232 31.5859 37.0457 31.5315 37.296C31.45 37.5464 31.5044 37.8245 31.6403 38.0748L33.6523 41.6069C33.7883 41.8572 34.0058 42.0241 34.2505 42.1075C34.5224 42.191 34.7943 42.1354 35.0118 41.9963C35.474 41.7182 35.6372 41.0785 35.3653 40.6057L33.3533 37.0457Z" fill="#FFB131"/>
                            <path d="M31.9938 8.34363C32.2113 8.48269 32.5104 8.51051 32.7551 8.45488C32.9998 8.37145 33.2445 8.20457 33.3533 7.98208L35.3653 4.44994C35.6372 3.94932 35.474 3.33745 35.0118 3.05933C34.5224 2.78121 33.9242 2.94808 33.6523 3.42089L31.6403 6.92522C31.5044 7.14771 31.4772 7.45365 31.5315 7.70396C31.5859 7.95426 31.7762 8.20457 31.9938 8.34363Z" fill="#FFB131"/>
                        </svg>