                        <svg width="76" height="117" viewBox="0 0 76 117" fill="none"
                            xmlns="http://www.w3.org/2000/svg">
                            <path fill-rule="evenodd" clip-rule="evenodd"
                                d="M26.755 92.4945L36.505 104.939C37.155 105.791 38.325 105.922 39.17 105.332C39.3 105.201 39.43 105.136 39.495 105.005L49.245 92.4945C53.925 93.215 58.41 94.8525 62.505 97.2105C65.56 99.1755 67.315 101.468 67.315 103.76C67.315 106.839 64.26 109.786 59.255 112.079C52.495 114.895 45.215 116.205 37.935 116.074C30.655 116.205 23.375 114.895 16.615 112.079C11.675 109.852 8.55501 106.904 8.55501 103.76C8.55501 101.402 10.31 99.11 13.365 97.2105C17.525 94.8525 22.01 93.215 26.755 92.4945ZM38 22.0165C48.27 22.0165 56.655 30.4005 56.655 40.815C56.655 51.164 48.335 59.6135 38 59.6135C27.73 59.6135 19.345 51.2295 19.345 40.815C19.345 35.837 21.295 31.0555 24.805 27.5185C28.315 23.9815 33.06 22.0165 38 22.0165ZM48.465 30.2695C42.68 24.44 33.32 24.44 27.535 30.2695C21.75 36.099 21.75 45.531 27.535 51.3605C33.32 57.19 42.68 57.19 48.465 51.3605C51.26 48.544 52.82 44.745 52.82 40.815C52.82 36.8195 51.26 33.0205 48.465 30.2695ZM69.265 36.4265C68.94 25.2915 62.44 15.2045 52.495 10.3575C51.52 9.96449 50.415 10.423 50.025 11.4055C49.635 12.3225 50.025 13.305 50.805 13.7635C59.515 18.021 65.17 26.798 65.495 36.5575C65.625 37.6055 66.535 38.3915 67.575 38.2605C68.485 38.1295 69.2 37.3435 69.265 36.4265ZM75.31 37.54C75.375 27.977 71.67 18.807 64.91 12.0605C50.025 -2.87352 25.975 -2.87352 11.09 12.0605C4.33 18.807 0.625004 27.977 0.690004 37.54C0.885004 48.0855 4.59 58.3035 11.22 66.491L38 100.747L64.78 66.491C71.41 58.3035 75.115 48.0855 75.31 37.54Z"
                                fill="#3E60FF" />
                        </svg>