<svg width="42" height="42" viewBox="0 0 42 42" fill="none" xmlns="http://www.w3.org/2000/svg">
    <path d="M21 0C9.41544 0 0 9.41544 0 21C0 32.5846 9.41544 42 21 42C32.5846 42 42 32.5846 42 21C42 9.41544 32.5846 0 21 0ZM21 2.14529C31.4166 2.14529 39.8547 10.5596 39.8547 21C39.8547 31.4404 31.4166 39.8309 21 39.8309C10.5834 39.8309 2.14529 31.4166 2.14529 21C2.14529 10.5834 10.5834 2.14529 21 2.14529ZM21 9.22474C20.4041 9.22474 19.9274 9.70147 19.9274 10.2974V12.7764H18.3303C15.7798 12.7764 13.6822 14.874 13.6822 17.4245C13.6822 19.975 15.7798 22.0726 18.3303 22.0726H23.6697C25.076 22.0726 26.1487 23.1691 26.1487 24.5516C26.1487 25.9342 25.0522 27.0306 23.6697 27.0306H15.6606C15.0647 27.0306 14.588 27.5074 14.588 28.1033C14.588 28.6992 15.0647 29.1759 15.6606 29.1759H19.9274V31.6549C19.9274 32.2508 20.4041 32.7276 21 32.7276C21.5959 32.7276 22.0726 32.2508 22.0726 31.6549V29.1759H23.6697C26.2202 29.1759 28.3178 27.0783 28.3178 24.5278C28.3178 21.9773 26.2202 19.8797 23.6697 19.8797H18.3303C16.9239 19.8797 15.8513 18.7832 15.8513 17.4007C15.8513 15.9943 16.9478 14.9217 18.3303 14.9217H26.3394C26.9353 14.9217 27.412 14.4449 27.412 13.849C27.412 13.2531 26.9353 12.7764 26.3394 12.7764H22.0726V10.3212C22.0726 9.72531 21.5959 9.22474 21 9.22474Z" fill="#FFB131"/>
</svg>