                        <svg width="123" height="116" viewBox="0 0 123 116" fill="none"
                            xmlns="http://www.w3.org/2000/svg">
                            <path
                                d="M122.711 29.3999C122.711 31.1549 121.679 32.7799 120.066 33.4299L96.5235 43.5049C96.1365 40.6449 94.3305 38.1749 91.7505 36.8749L65.5635 23.6799C64.338 23.0299 62.9835 22.7049 61.5645 22.7699C58.275 22.7699 55.2435 24.6549 53.76 27.6449C52.728 29.7249 52.5345 32.1299 53.3085 34.3399C54.018 36.5499 55.6305 38.3699 57.6945 39.4099L79.1085 50.1999V50.8499L63.3705 57.6099C62.274 58.0649 61.0485 58.0649 59.952 57.6099L3.19201 33.4299C0.999009 32.4549 -0.0329915 29.9199 0.870009 27.6449C1.32151 26.6049 2.16001 25.7599 3.19201 25.3049L59.952 1.12494C61.0485 0.669941 62.274 0.669941 63.3705 1.12494L120.131 25.3049C121.679 26.0199 122.711 27.6449 122.711 29.3999ZM79.1085 55.7899L65.0475 61.7699C62.8545 62.6799 60.4035 62.6799 58.2105 61.7699L17.9625 44.5449V61.8349C17.9625 67.0999 21.0585 71.9099 25.896 73.9899L53.115 85.4949C58.533 87.8349 64.725 87.8349 70.143 85.4949L79.1085 81.6599V55.7899ZM96.5235 74.3799L97.2975 74.0549C102.135 71.9749 105.296 67.1649 105.231 61.8349V44.5449L96.5235 48.2499V74.3799ZM92.202 89.6549V44.8049C92.202 43.1799 91.299 41.6199 89.8155 40.9049L63.6285 27.7099C61.371 26.7999 58.8555 27.8399 57.9525 30.0499C57.114 32.0649 57.888 34.4049 59.7585 35.5099L83.43 47.5349V89.5899C76.593 91.9949 73.0455 99.5349 75.432 106.425C77.8185 113.315 85.3005 116.89 92.1375 114.485C98.9745 112.08 102.522 104.54 100.136 97.6499C98.8455 93.8799 95.8785 90.9549 92.1375 89.5899V89.6549H92.202Z"
                                fill="#3E60FF" />
                        </svg>