<svg width="66" height="117" viewBox="0 0 66 117" fill="none"
    xmlns="http://www.w3.org/2000/svg">
    <path
        d="M13.955 2.62856C13.955 3.61106 14.735 4.39706 15.71 4.39706H17.4V15.9251H28.255V4.33156H37.745V15.8596h28.6V4.33156H50.355C51.33 4.33156 52.11 3.54556 52.11 2.56306C52.11 1.58056 51.33 0.794556 50.355 0.794556C50.55 0.794556 16.165 0.794556 15.71 0.794556C14.735 0.860056 13.955 1.64606 13.955 2.62856Z"
        fill="#3E60FF" />
    <path
        d="M5.375 112.669C5.375 114.634 6.935 116.14 8.82 116.14H15.775C17.66 116.14 19.22 114.568 19.22 112.669V110.9H5.375V112.669Z"
        fill="#3E60FF" />
    <path
        d="M46.78 110.9V112.669C46.78 114.634 48.34 116.14 50.225 116.14H57.18C59.065 116.14 60.625 114.568 60.625 112.669V110.769C60.105 110.835 59.52 110.9 58.935 110.9C59 110.9 46.78 110.9 46.78 110.9Z"
        fill="#3E60FF" />
    <path
        d="M65.955 26.3396C65.955 23.2611 64.005 20.7066 61.275 19.7896L0.110001 80.8356V100.42C0.110001 102.909 1.475 105.136 3.425 106.381L65.955 43.3696V26.3396Z"
        fill="#3E60FF" />
    <path
        d="M65.955 100.42V81.7526L40.54 107.363H59C62.835 107.429 65.955 104.285 65.955 100.42Z"
        fill="#3E60FF" />
    <path d="M0.0449982 47.5616V75.9231L56.725 19.3966H28.19L0.0449982 47.5616Z"
        fill="#3E60FF" />
    <path
        d="M0.0449982 26.3396V42.6491L23.25 19.3966H7C3.165 19.3966 0.0449982 22.5406 0.0449982 26.3396Z"
        fill="#3E60FF" />
    <path d="M65.955 48.2821L7.25999 107.429H35.6L65.955 76.8401V48.2821Z" fill="#3E60FF" />
</svg>