<svg width="38" height="38" viewBox="0 0 38 38" fill="none" xmlns="http://www.w3.org/2000/svg">
    <path
        d="M2.8847 34.9999C2.1004 34.9999 1.42355 34.7152 0.854146 34.1458C0.284746 33.5764 4.57764e-05 32.8996 4.57764e-05 32.1153V9.88467C4.57764e-05 9.10037 0.284746 8.42352 0.854146 7.85412C1.42355 7.28472 2.1004 7.00002 2.8847 7.00002H12V2.88472C12 2.10042 12.2847 1.42359 12.8541 0.854224C13.4235 0.284824 14.1004 0.00012207 14.8847 0.00012207H23.1153C23.8996 0.00012207 24.5764 0.284824 25.1458 0.854224C25.7152 1.42359 26 2.10042 26 2.88472V7.00002H35.1153C35.8996 7.00002 36.5765 7.28472 37.1459 7.85412C37.7153 8.42352 38 9.10037 38 9.88467V32.1153C38 32.8996 37.7153 33.5764 37.1459 34.1458C36.5765 34.7152 35.8996 34.9999 35.1153 34.9999H2.8847ZM14.2692 7.00002H23.7307V2.88472C23.7307 2.73086 23.6666 2.58982 23.5384 2.46162C23.4102 2.33339 23.2692 2.26927 23.1153 2.26927H14.8847C14.7308 2.26927 14.5898 2.33339 14.4615 2.46162C14.3333 2.58982 14.2692 2.73086 14.2692 2.88472V7.00002ZM35.7308 23.1038H22.9345V25.873H15.1269V23.1038H2.26925V32.1153C2.26925 32.2691 2.33335 32.4102 2.46155 32.5384C2.58978 32.6666 2.73083 32.7307 2.8847 32.7307H35.1153C35.2692 32.7307 35.4102 32.6666 35.5384 32.5384C35.6666 32.4102 35.7308 32.2691 35.7308 32.1153V23.1038ZM17.3961 23.6038H20.6654V20.3346H17.3961V23.6038ZM2.26925 20.8346H15.1269V18.0654H22.9345V20.8346H35.7308V9.88467C35.7308 9.7308 35.6666 9.58976 35.5384 9.46152C35.4102 9.33332 35.2692 9.26922 35.1153 9.26922H2.8847C2.73083 9.26922 2.58978 9.33332 2.46155 9.46152C2.33335 9.58976 2.26925 9.7308 2.26925 9.88467V20.8346Z"
        fill="#000" />
</svg>