<svg width="38" height="38" viewBox="0 0 38 38" fill="none" xmlns="http://www.w3.org/2000/svg">
    <path
        d="M19.0033 37.9999C16.3755 37.9999 13.9054 37.5012 11.5931 36.5039C9.28085 35.5066 7.26948 34.1531 5.55905 32.4434C3.84858 30.7337 2.49446 28.7232 1.4967 26.412C0.498929 24.1007 4.57764e-05 21.6312 4.57764e-05 19.0033C4.57764e-05 16.3754 0.498713 13.9054 1.49605 11.5931C2.49338 9.2808 3.84688 7.26944 5.55655 5.559C7.26625 3.84854 9.27673 2.49442 11.588 1.49665C13.8992 0.498886 16.3688 0 18.9966 0C21.6245 0 24.0946 0.498669 26.4069 1.496C28.7192 2.49334 30.7305 3.84683 32.4409 5.5565C34.1514 7.2662 35.5055 9.27669 36.5033 11.588C37.5011 13.8992 38 16.3687 38 18.9966C38 21.6245 37.5013 24.0945 36.5039 26.4068C35.5066 28.7191 34.1531 30.7305 32.4435 32.4409C30.7338 34.1514 28.7233 35.5055 26.412 36.5033C24.1008 37.501 21.6312 37.9999 19.0033 37.9999ZM16.8884 35.6615V31.6192C15.7324 31.6192 14.7581 31.1987 13.9656 30.3577C13.1732 29.5166 12.7769 28.5192 12.7769 27.3653V25.223L2.7 15.1461C2.559 15.7871 2.45195 16.4267 2.37885 17.0649C2.30578 17.703 2.26925 18.3495 2.26925 19.0043C2.26925 23.2578 3.65515 26.9724 6.42695 30.148C9.19875 33.3236 12.6859 35.1615 16.8884 35.6615ZM31.3577 30.3384C32.0654 29.564 32.691 28.7344 33.2346 27.8496C33.7782 26.9648 34.2395 26.0389 34.6186 25.0719C34.9978 24.1049 35.2779 23.1134 35.4591 22.0973C35.6402 21.0812 35.7308 20.0488 35.7308 19C35.7308 15.5339 34.7833 12.3776 32.8885 9.5312C30.9936 6.68474 28.4487 4.61407 25.2538 3.3192V4.2451C25.2538 5.3945 24.8576 6.38972 24.0651 7.23075C23.2727 8.07175 22.2984 8.49225 21.1423 8.49225H16.8884V12.7461C16.8884 13.3182 16.6731 13.7895 16.2423 14.1598C15.8115 14.5302 15.3151 14.7154 14.7529 14.7154H10.6346V19H23.2846C23.8567 19 24.328 19.2102 24.6983 19.6307C25.0687 20.0512 25.2538 20.5448 25.2538 21.1115V27.3653H27.3572C28.3037 27.3653 29.1409 27.6416 29.8689 28.1941C30.5968 28.7465 31.0931 29.4613 31.3577 30.3384Z"
        fill="#000" />
</svg>