<?xml version="1.0"?>
<svg width="470" height="470" xmlns="http://www.w3.org/2000/svg" xmlns:svg="http://www.w3.org/2000/svg" version="1.1">
 <g class="layer">
  <title>Layer 1</title>
  <path d="m369.98,59.9c8.71,6.53 15.08,16.03 17.07,26.68c2.25,29.73 -7.88,59.83 -27.55,82.54c-27.24,29.41 -27.24,29.41 -38.26,33.02c0.7,2.63 0.7,2.63 1.41,5.3c1.53,5.99 2.66,11.98 3.69,18.07c0.28,1.61 0.28,1.61 0.55,3.23c0.58,3.5 1.16,6.98 1.73,10.48c0.2,1.2 0.4,2.4 0.61,3.65c1.06,6.38 2.11,12.76 3.15,19.13c1.07,6.53 2.16,13.06 3.26,19.58c0.86,5.07 1.68,10.15 2.51,15.22c0.4,2.4 0.8,4.8 1.21,7.22c6.31,37.31 6.31,37.31 0.89,48.85c-1.22,1.28 -2.43,2.55 -3.7,3.86c-0.77,0.84 -1.53,1.7 -2.31,2.57c-2.6,2.82 -5.3,5.52 -8.02,8.22c-0.89,0.92 -1.78,1.85 -2.69,2.79c-7.21,7.16 -14,11.29 -24.47,12.31c-1.04,-0.12 -2.08,-0.24 -3.15,-0.38c-1.04,-0.09 -2.08,-0.18 -3.17,-0.29c-11.22,-3.77 -17.14,-11.72 -23.22,-21.13c-0.8,-1.2 -1.59,-2.4 -2.42,-3.65c-2.53,-3.83 -5.04,-7.67 -7.55,-11.51c-1.67,-2.54 -3.32,-5.06 -4.99,-7.58c-2.46,-3.72 -4.91,-7.43 -7.36,-11.17c-3.84,-5.85 -7.71,-11.69 -11.69,-17.47c-0.72,-1.04 -1.44,-2.09 -2.17,-3.17c-1.35,-1.94 -2.69,-3.89 -4.06,-5.82c-4.45,-6.44 -4.45,-6.44 -4.45,-9.77c-9.18,7.16 -17.98,14.36 -26.14,22.65c-3.99,3.9 -8.28,7.41 -12.63,10.91c-5.8,5.6 -6.06,11.09 -6.37,18.86c-0.11,2.04 -0.2,4.1 -0.31,6.15c-0.14,3.21 -0.28,6.42 -0.4,9.63c-0.73,18.5 -3.93,27.96 -17.48,40.97c-0.84,0.84 -1.7,1.7 -2.56,2.57c-7.35,7.14 -14.3,11.95 -24.99,12.07c-6.95,-0.3 -12.29,-1.04 -17.97,-5.12c-3.8,-4.11 -6.31,-8.63 -8.82,-13.55c-0.54,-1.02 -1.06,-2.06 -1.61,-3.12c-2.97,-6.08 -5.2,-11.98 -6.95,-18.49c-4.25,-13.91 -9.21,-23.5 -22.44,-30.71c-11.94,-6.02 -24.29,-11.26 -36.86,-15.91c-8.97,-3.45 -14.42,-7.89 -19.39,-16.19c-2.51,-8.34 -2.71,-15.92 1.42,-23.83c2.33,-3.2 4.82,-6.02 7.56,-8.9c1.22,-1.29 2.43,-2.58 3.69,-3.92c11.83,-12.1 20.86,-17.09 37.9,-17.57c1.06,-0.03 2.1,-0.06 3.17,-0.09c3.32,-0.09 6.64,-0.18 9.96,-0.27c2.27,-0.06 4.52,-0.14 6.78,-0.2c5.53,-0.17 11.04,-0.32 16.56,-0.47c0.46,-0.93 0.92,-1.88 1.39,-2.85c1.81,-3.39 3.72,-5.4 6.55,-8.03c4.85,-4.61 9.32,-9.42 13.73,-14.44c4.96,-5.61 10.03,-11.15 15.06,-16.7c-13.35,-9.8 -27.15,-18.76 -41.13,-27.67c-8.25,-5.25 -16.48,-10.52 -24.69,-15.85c-0.96,-0.63 -1.94,-1.26 -2.94,-1.91c-2.77,-1.82 -5.53,-3.63 -8.28,-5.46c-1.58,-1.04 -3.15,-2.09 -4.78,-3.15c-6.75,-5.16 -9.34,-10.24 -10.52,-18.43c-0.44,-8.75 1.58,-14.96 7.44,-21.82c2.85,-3.02 5.77,-5.91 8.74,-8.79c1.48,-1.49 1.48,-1.49 2.98,-3.02c7.58,-7.41 14.14,-12.25 25.27,-12.67c6.52,0.09 12.78,0.95 19.19,2c1.19,0.2 2.39,0.39 3.63,0.59c2.57,0.41 5.14,0.83 7.73,1.25c4.07,0.66 8.16,1.32 12.23,1.97c7.19,1.14 14.37,2.3 21.57,3.47c11.51,1.86 23.02,3.71 34.55,5.54c4.01,0.65 8.02,1.29 12.03,1.95c2.46,0.39 4.93,0.8 7.39,1.19c1.12,0.18 2.22,0.36 3.35,0.56c6.08,0.96 11.91,1.68 18.06,1.23c3.72,-2.82 3.72,-2.82 6.8,-6.75c1.18,-1.38 2.37,-2.75 3.58,-4.17c1.13,-1.34 2.25,-2.69 3.4,-4.08c24.99,-29.28 81,-65.85 120.69,-40.19zm-114.56,68.7c-2.36,2.57 -4.71,5.13 -7.07,7.7c-2.23,2.43 -4.47,4.88 -6.7,7.31c-2.3,2.51 -4.59,5 -6.89,7.5c-1.13,1.25 -2.27,2.48 -3.44,3.75c-10.33,11.26 -10.33,11.26 -13.79,15.02c-2.25,2.46 -4.5,4.92 -6.77,7.38c-6.31,6.89 -12.66,13.75 -19.04,20.56c-4.59,4.89 -9.15,9.8 -13.59,14.81c-5.14,5.82 -10.45,11.5 -15.78,17.15c-5.65,6.03 -11.25,12.11 -16.84,18.2c-2.31,2.52 -4.62,5.04 -6.95,7.56c-5.22,5.67 -10.42,11.35 -15.44,17.2c-3.92,4.41 -3.92,4.41 -6.98,5.91c-3.87,0.21 -7.71,0.35 -11.59,0.44c-2.37,0.08 -4.74,0.17 -7.12,0.26c-3.75,0.14 -7.48,0.26 -11.22,0.32c-16.73,-0.11 -16.73,-0.11 -31.19,7.05c-2.54,2.66 -2.54,2.66 -4.7,5.45c-0.78,0.89 -1.58,1.77 -2.39,2.69c-1.82,2.06 -3.55,4.17 -5.27,6.32c6.72,4.65 13.44,8.1 20.97,11.3c2.25,0.98 4.5,1.97 6.75,2.94c3.52,1.52 7.04,3.03 10.56,4.53c3.41,1.47 6.83,2.96 10.24,4.44c1.06,0.44 2.11,0.89 3.18,1.34c10.65,4.68 13.39,11.15 17.95,21.24c0.49,1.07 0.98,2.15 1.5,3.27c1.58,3.44 3.14,6.87 4.7,10.31c1.58,3.45 3.15,6.9 4.73,10.34c0.98,2.15 1.96,4.28 2.94,6.42c2.01,4.41 4.04,8.39 6.78,12.41c5.4,-2.28 9.09,-5.37 13.3,-9.38c1.81,-1.68 1.81,-1.68 3.66,-3.39c6.28,-7.95 4.88,-19.27 5.23,-28.96c0.31,-8.13 0.63,-16.25 1.38,-24.34c0.09,-1.07 0.2,-2.12 0.29,-3.21c1.12,-4.91 4.44,-7.14 8.28,-10.25c1.71,-1.67 3.4,-3.36 5.07,-5.06c4.62,-4.53 9.44,-8.75 14.39,-12.94c4.22,-3.63 8.37,-7.35 12.5,-11.08c8.17,-7.38 16.41,-14.68 24.67,-21.96c2.56,-2.25 5.11,-4.5 7.65,-6.75c5.11,-4.5 10.21,-9 15.31,-13.51c1.27,-1.11 2.54,-2.24 3.84,-3.39c2.51,-2.21 5.02,-4.43 7.53,-6.63c7.03,-6.18 14.02,-12.41 20.97,-18.67c5.92,-5.34 11.91,-10.61 18,-15.77c4.93,-4.26 9.77,-8.64 14.6,-13.01c5,-4.52 10.06,-8.99 15.12,-13.43c1.24,-1.1 2.48,-2.21 3.75,-3.33c2.1,-1.86 4.19,-3.69 6.34,-5.48c16.58,-14.72 25.85,-38.21 28.07,-59.61c0.29,-8.09 -0.83,-12.68 -6.49,-19c-35.63,-22.18 -80.25,25.15 -101.02,48.02zm-165.18,-5.16c-1.67,1.64 -3.34,3.3 -5,4.98c-0.84,0.83 -1.7,1.67 -2.59,2.52c-4.73,4.08 -4.73,4.08 -6.31,9.66c3.09,2.4 3.09,2.4 7.15,4.88c1.58,0.99 3.14,2 4.76,3.02c1.73,1.1 3.47,2.18 5.22,3.27c2.69,1.7 5.39,3.39 8.08,5.1c1.88,1.2 3.78,2.39 5.68,3.59c7.13,4.5 14.22,9.11 21.27,13.75c3.03,1.97 6.05,3.95 9.08,5.93c1.97,1.29 3.93,2.58 5.89,3.89c2.76,1.82 5.53,3.62 8.3,5.42c1.58,1.04 3.17,2.09 4.79,3.15c1.32,0.68 2.62,1.35 3.96,2.04c4.97,-1.62 5.88,-2.55 9.09,-6.38c4.93,-5.7 10.03,-11.21 15.21,-16.69c1.59,-1.7 3.18,-3.38 4.76,-5.06c0.78,-0.83 1.56,-1.65 2.36,-2.49c0.75,-0.8 1.48,-1.59 2.25,-2.4c1.33,-1.41 2.66,-2.82 4.04,-4.28c1.19,-1.28 2.39,-2.57 3.61,-3.89c1.04,-1.11 2.08,-2.22 3.15,-3.36c3.38,-3.96 6.2,-8.18 9.09,-12.49c-14.88,-2.36 -29.77,-4.7 -44.66,-7.04c-6.92,-1.1 -13.82,-2.18 -20.74,-3.27c-6.66,-1.05 -13.33,-2.1 -20,-3.15c-2.54,-0.41 -5.1,-0.81 -7.64,-1.22c-3.57,-0.56 -7.12,-1.13 -10.68,-1.68c-1.06,-0.17 -2.11,-0.33 -3.2,-0.51c-9.23,-1.82 -9.23,-1.82 -16.93,2.7zm208.04,99.71c-1.29,1.19 -2.59,2.36 -3.92,3.57c-15.76,14.33 -15.76,14.33 -22.1,19.69c-5.62,4.77 -11.08,9.69 -16.55,14.63c-0.86,0.78 -1.73,1.56 -2.62,2.37c-3.89,3.53 -7.71,7.08 -11.45,10.76c0.52,0.75 1.03,1.5 1.55,2.27c25.01,36.78 25.01,36.78 27.89,41.03c1.9,2.78 3.8,5.55 5.68,8.33c3.95,5.78 7.88,11.57 11.65,17.47c1.61,2.46 1.61,2.46 3.23,4.98c0.86,1.38 1.73,2.76 2.62,4.17c0.83,0.92 1.65,1.85 2.49,2.79c7.47,0 8.85,-1.46 14.25,-6.29c1.39,-1.16 2.77,-2.33 4.19,-3.53c7.3,-12.7 0.32,-33.27 -1.93,-47.18c-0.34,-2.09 -0.67,-4.17 -1.01,-6.26c-0.69,-4.32 -1.39,-8.64 -2.1,-12.97c-0.89,-5.54 -1.78,-11.08 -2.65,-16.63c-0.69,-4.28 -1.38,-8.55 -2.08,-12.85c-0.32,-2.04 -0.64,-4.08 -0.96,-6.14c-0.46,-2.84 -0.92,-5.67 -1.39,-8.51c-0.38,-2.43 -0.38,-2.43 -0.78,-4.89c-0.64,-4.05 -0.64,-4.05 -4.01,-6.83z" fill="#fff" id="svg_1"/>
  <path d="m446,186c6.16,5.2 9.53,10.43 10.78,18.5c0.35,9.57 -2.93,15.88 -9.21,22.79c-2.12,2.27 -4.25,4.51 -6.4,6.75c-3.85,4.05 -7.44,8.34 -11.06,12.6c-3.09,3.64 -6.2,7.26 -9.33,10.86c-0.52,0.61 -1.05,1.22 -1.59,1.84c-13.32,15.35 -13.32,15.35 -24.28,16.19c-13.16,-0.17 -20.4,-7.94 -29.25,-16.84c-0.78,-0.75 -1.55,-1.51 -2.34,-2.29c-7.7,-7.69 -13.82,-15.12 -14.85,-26.27c0.74,-8.58 3.74,-14.94 10.31,-20.63c6.67,-4.62 14.11,-5.01 22,-4c2.28,0.79 4.17,1.68 6.22,2.93c2.17,1.31 4.42,2.18 6.78,3.07c0.5,-0.63 1,-1.26 1.51,-1.91c4.53,-5.65 9.21,-11.15 14.05,-16.52c0.52,-0.59 1.04,-1.18 1.57,-1.79c9.07,-9.91 23.57,-13.57 35.09,-5.28zm-23.8,17.04c-0.88,0.97 -1.76,1.95 -2.67,2.96c-0.47,0.53 -0.95,1.06 -1.44,1.6c-5.21,5.83 -10.23,11.84 -14.95,18.08c-2.51,3.2 -4.09,4.7 -7.86,6.45c-4.29,0.46 -5.96,-0.19 -9.5,-2.63c-1.36,-1.64 -2.69,-3.31 -4,-5c-2.75,-2.1 -4.58,-2.93 -8,-3.5c-4.1,0.69 -5.48,2.26 -8,5.5c-1.15,2.44 -1.15,2.44 -1,5c2.12,4.12 4.98,7.4 8.13,10.75c0.48,0.52 0.96,1.04 1.45,1.58c7.95,9.77 7.95,9.77 18.55,15.17c8.48,-1.09 13.37,-9.15 18.39,-15.47c2.71,-3.3 5.56,-6.41 8.48,-9.53c4.58,-4.89 8.91,-9.89 13.09,-15.12c1.59,-1.98 3.23,-3.86 4.91,-5.75c2.09,-2.75 3,-4.18 3,-7.63c-1.78,-4.14 -3.95,-6.07 -8,-8c-4.77,0 -7.24,2.26 -10.58,5.54z" fill="#fff" id="svg_2"/>
 </g>
</svg>